<?xml version="1.0" standalone="no"?>
<!DOCTYPE svg PUBLIC "-//W3C//DTD SVG 20010904//EN"
 "http://www.w3.org/TR/2001/REC-SVG-20010904/DTD/svg10.dtd">
<svg version="1.0" xmlns="http://www.w3.org/2000/svg"
 width="674.000000pt" height="674.000000pt" viewBox="0 0 674.000000 674.000000"
 preserveAspectRatio="xMidYMid meet">
<metadata>
Created by potrace 1.11, written by Peter Selinger 2001-2013
</metadata>
<g transform="translate(0.000000,674.000000) scale(0.100000,-0.100000)"
fill="#000000" stroke="none">
<path d="M4820 6054 c-43 -30 -136 -60 -222 -71 -34 -4 -225 -6 -423 -4 -846
9 -1203 5 -1234 -13 -3 -2 -31 -7 -62 -10 -31 -4 -67 -9 -80 -12 -13 -2 -40
-7 -59 -10 -69 -12 -263 -75 -331 -109 -139 -69 -248 -157 -318 -258 -35 -51
-64 -74 -131 -102 -66 -28 -179 -108 -248 -175 -206 -201 -305 -519 -268 -860
13 -117 41 -222 108 -408 62 -173 69 -199 63 -240 -13 -93 -9 -89 -96 -102
-43 -7 -80 -18 -80 -24 -5 -42 10 -291 20 -344 10 -51 19 -62 63 -76 l33 -11
-3 -495 c-8 -1123 -10 -1017 16 -1095 31 -92 63 -143 131 -214 83 -87 188
-134 371 -167 14 -3 32 -7 40 -9 8 -2 38 -7 65 -10 28 -4 61 -8 75 -11 14 -2
57 -6 95 -10 39 -3 80 -7 92 -9 161 -26 1572 -26 1853 0 19 1 69 6 110 9 82 8
240 31 310 47 25 6 54 12 64 15 180 36 333 170 392 343 33 97 42 256 28 496
-10 179 -11 1134 -1 1132 14 -3 34 39 41 88 4 22 9 106 12 186 l7 147 -44 8
c-24 4 -49 7 -56 6 -6 -2 -14 16 -18 40 -14 85 -16 94 -26 133 -37 145 -91
258 -155 321 l-41 42 35 32 c33 30 36 31 46 14 27 -47 82 -180 121 -294 23
-69 47 -136 52 -149 10 -24 10 -24 18 10 4 19 8 36 9 39 14 43 31 130 42 209
3 25 8 57 10 71 6 33 6 338 0 370 -3 14 -7 48 -11 75 -29 244 -117 463 -242
596 l-46 49 43 120 c54 153 78 310 69 449 -8 115 -23 155 -53 144 -51 -17
-211 -61 -214 -58 -1 1 11 24 27 51 17 27 33 68 36 92 2 23 4 42 2 42 -1 -1
-18 -12 -37 -26z m-3035 -1798 l41 -39 -46 -46 c-46 -47 -99 -144 -119 -219
-7 -23 -16 -42 -22 -42 -6 0 -8 3 -6 8 3 4 8 39 11 77 8 82 31 229 47 305 l11
54 21 -30 c12 -16 39 -47 62 -68z"/>
</g>
</svg>
