<svg xmlns="http://www.w3.org/2000/svg" width="100" height="100" fill="none">
  <path fill="url(#paint0_linear)" d="M26.5 79c-3.8-3.5-2.4-6.6-2.4-17 0-6.7-.6-22.4 4.2-24.3 0-1-2.9-1-3-6.6.2-10.5 15.7-13 24.7-12.8 9-.3 24.5 2.3 24.7 12.8-.1 5.5-3.1 5.6-3 6.6 4.8 2 4.2 17.6 4.2 24.2 0 10.5 1.4 13.6-2.4 17-4 3.6-23.5 2.8-23.5 2.8s-19.6.8-23.5-2.7z"/>
  <path fill="url(#paint1_linear)" d="M50 17.6c-4.7-.1-11 .4-16.1 2.4a18 18 0 0 0-6.7 4.2 10 10 0 0 0-2.9 6.9c0 2.9 1 4.5 1.8 5.4l1 1c-1 .7-1.8 2-2.4 3.7-.7 1.9-1 4.3-1.3 6.8-.5 5-.3 10.6-.3 14 0 5.2-.4 8.6-.2 11.2 0 2.6.8 4.5 2.9 6.3a12 12 0 0 0 5.7 2c2.4.5 5.3.7 8 .8 5.5.3 10.4 0 10.5 0a139.1 139.1 0 0 0 18.5-.8 12 12 0 0 0 5.7-2c2-1.8 2.8-3.7 3-6.3 0-2.6-.3-6-.3-11.2 0-3.4.2-9-.3-14-.2-2.5-.6-5-1.3-6.8-.6-1.7-1.3-3-2.5-3.7l1.1-1c.9-1 1.7-2.5 1.8-5.4a10 10 0 0 0-2.9-7 18 18 0 0 0-6.7-4c-5.2-2-11.4-2.6-16-2.5H50zm0 1.2a44 44 0 0 1 15.7 2.4c2.5.9 4.7 2.2 6.2 3.8a8.7 8.7 0 0 1 2.5 6v.1c0 2.6-.7 3.8-1.4 4.6l-1 .8-.4.5-.2.7v.4l.4.2c1 .3 1.7 1.5 2.3 3.2.7 1.8 1 4.1 1.3 6.6.4 5 .3 10.5.3 13.9 0 5.3.3 8.7.2 11.1-.1 2.4-.6 3.8-2.5 5.5-.8.7-2.7 1.3-5 1.7-2.5.5-5.3.7-8 .8-5.4.2-10.4 0-10.4 0s-5 .2-10.4 0c-2.7-.1-5.5-.3-8-.8-2.3-.4-4.2-1-5-1.7-1.9-1.7-2.4-3-2.5-5.5-.2-2.4.2-5.8.2-11.1 0-3.4-.1-9 .3-13.9.2-2.5.6-4.8 1.2-6.6.6-1.7 1.5-2.9 2.4-3.2l.4-.2v-.4c0-.3 0-.5-.2-.7l-.4-.5-1-.8c-.7-.8-1.4-2-1.4-4.6 0-2.5 1-4.5 2.5-6.1 1.5-1.6 3.7-2.9 6.2-3.8A44 44 0 0 1 50 18.8z"/>
  <path fill="url(#paint2_radial)" d="M26.5 79c-3.8-3.5-2.4-6.6-2.4-17 0-6.7-.6-22.4 4.2-24.3 0-1-2.9-1-3-6.6.2-10.5 15.7-13 24.7-12.8 9-.3 24.5 2.3 24.7 12.8-.1 5.5-3.1 5.6-3 6.6 4.8 2 4.2 17.6 4.2 24.2 0 10.5 1.4 13.6-2.4 17-4 3.6-23.5 2.8-23.5 2.8s-19.6.8-23.5-2.7z"/>
  <path fill="#EFCBA1" fill-opacity=".4" d="M50 18.2c-4.5 0-10.5.5-15.5 2.4-2.5 1-4.8 2.3-6.5 4.1a10 10 0 0 0-2.7 6.8c0 2.8.8 4.3 1.7 5.2l1 1c-1 .7-1.8 2-2.4 3.6-.6 2-1 4.2-1.2 6.7-.4 5-.3 10.5-.3 13.7 0 5.2-.4 8.5-.2 11a8 8 0 0 0 2.8 6.2c1.1 1 3.1 1.6 5.5 2 2.3.4 5.1.7 7.7.8 5.3.2 10 0 10 0h.1a131.9 131.9 0 0 0 17.8-.8c2.4-.4 4.4-1 5.5-2a8 8 0 0 0 2.8-6.2c.1-2.5-.2-5.8-.2-11 0-3.2.1-8.7-.3-13.7-.2-2.5-.6-4.8-1.3-6.7a6.6 6.6 0 0 0-2.4-3.6c.3-.2.7-.5 1.1-1 .8-.9 1.7-2.4 1.7-5.2 0-2.8-1.1-5-2.8-6.8-1.6-1.8-3.9-3.1-6.4-4-5-2-11-2.6-15.5-2.5zm0 1.2c4.4 0 10.3.5 15 2.3 2.5 1 4.6 2.2 6 3.8a8.6 8.6 0 0 1 2.5 6c0 2.6-.7 3.7-1.4 4.5l-.9.8-.4.4c-.1.2-.3.5-.3.8v.4h.4c1 .5 1.7 1.6 2.3 3.3.6 1.8 1 4 1.2 6.4.5 4.9.3 10.3.3 13.6 0 5.2.3 8.6.2 11-.1 2.3-.6 3.7-2.4 5.3-.7.7-2.6 1.3-4.9 1.7-2.3.5-5 .7-7.6.8-5.2.2-10 0-10 0s-4.8.2-10 0c-2.6-.1-5.4-.3-7.6-.8-2.3-.4-4.2-1-5-1.7-1.7-1.6-2.2-3-2.3-5.3-.2-2.4.2-5.8.2-11 0-3.3-.2-8.7.3-13.6.2-2.4.6-4.6 1.2-6.4.6-1.7 1.3-2.8 2.3-3.2l.3-.1V38c0-.3 0-.6-.2-.8l-.4-.4-1-.8c-.6-.8-1.3-2-1.3-4.5s1-4.4 2.4-6c1.5-1.6 3.6-2.8 6-3.8a41.6 41.6 0 0 1 15-2.3z"/>
  <path fill="url(#paint3_linear)" d="M58.1 50c0 1.6-.8 2.8-1.8 2.8s-1.8-1.2-1.8-2.7c0-1.5.8-2.7 1.8-2.7s1.8 1.2 1.8 2.7z"/>
  <path fill="url(#paint4_linear)" d="M67.7 42c.3.7.1 1.4-.4 1.6-.5.2-1-.2-1.3-.8-.3-.7-.1-1.4.4-1.6.5-.2 1 .2 1.3.9z"/>
  <path fill="url(#paint5_linear)" d="M43.4 45.7c-.5.7-1.2 1-1.6.9-.4-.3-.3-1 .2-1.7.5-.6 1.2-1 1.6-.8.4.2.3 1-.2 1.6z"/>
  <path fill="url(#paint6_linear)" d="M60.4 65c-1 .8-2.1 1.2-2.4.9-.2-.3.4-1.3 1.4-2 1-.9 2.1-1.3 2.4-1 .2.4-.4 1.3-1.4 2.1z"/>
  <path fill="url(#paint7_linear)" d="M38.4 28.8c-.7.5-1.5.7-1.7.3-.3-.3 0-1 .6-1.6.7-.5 1.5-.7 1.8-.3.2.3 0 1-.7 1.6z"/>
  <path fill="url(#paint8_linear)" d="M39.8 67.8c.4.4.5 1 .3 1.1-.2.2-.6 0-1-.4-.5-.5-.6-1-.4-1.1.2-.2.7 0 1 .4z"/>
  <path fill="url(#paint9_linear)" d="M32.3 52c0 .6-.2 1.2-.5 1.2-.2 0-.4-.6-.4-1.3 0-.7.2-1.2.4-1.2.3 0 .5.5.5 1.2z"/>
  <path fill="url(#paint10_linear)" d="M47 34c-.5.2-1.1.3-1.4 0-.2-.1 0-.5.5-.8.5-.3 1-.4 1.3-.2.2.2 0 .6-.5 1z"/>
  <path fill="url(#paint11_linear)" d="M57.5 35.5c.7.5 1 1.3.8 1.6-.3.4-1.1.3-1.8-.2s-1-1.2-.7-1.6c.2-.4 1-.3 1.7.2z"/>
  <path fill="url(#paint12_linear)" d="M64.2 28.4c.5.4.6 1 .3 1.3-.3.3-.9.1-1.3-.3-.5-.5-.6-1-.3-1.4.3-.2.9 0 1.3.4z"/>
  <path fill="url(#paint13_linear)" d="M54.1 25.7c0 .4-.8.8-1.7.8-1 0-1.8-.4-1.8-.8 0-.5.8-.9 1.8-.9s1.7.4 1.7.9z"/>
  <path fill="url(#paint14_linear)" d="M28.9 59.5c0 .4-.3.8-.6.8-.2 0-.5-.4-.5-.8 0-.5.3-.9.5-.9.3 0 .6.4.6.9z"/>
  <path fill="url(#paint15_linear)" d="M67.8 54.4c0 .5-.3.9-.7.9-.4 0-.8-.4-.8-.9 0-.4.4-.8.8-.8s.7.4.7.8z"/>
  <path fill="url(#paint16_linear)" d="M52.4 72.5c-.8 0-1.5.4-1.5.7 0 .3.5.5 1.3.4.8 0 1.5-.4 1.5-.7 0-.3-.5-.5-1.3-.4z"/>
  <path fill="url(#paint17_linear)" d="M32.6 73.6c.6.6.9 1.3.6 1.6-.3.3-1 0-1.7-.6-.6-.6-.9-1.3-.6-1.6.3-.3 1 0 1.7.6z"/>
  <path fill="url(#paint18_linear)" d="M35.1 36.5c0 .6-.4 1.1-1 1.1s-1-.5-1-1.1c0-.6.4-1.1 1-1.1s1 .5 1 1.1z"/>
  <path fill="url(#paint19_linear)" d="M43.4 58.3c.5 1.1.4 2.2-.2 2.5-.6.2-1.5-.4-2-1.5-.5-1-.4-2.2.2-2.4.7-.3 1.5.3 2 1.4z"/>
  <path fill="url(#paint20_linear)" d="M64.8 73.4c-.5.6-1.2.8-1.4.6-.2-.2 0-.8.6-1.4.6-.6 1.3-.8 1.5-.6.2.2 0 .9-.7 1.4z"/>
  <path fill="url(#paint21_linear)" d="M65 52.7c11 5.2-4.1 22.1-13.3 22.1-9.2 0-34.3 2.2-16.7-22-2.2-14.4 7.5-22.1 16.7-22.1 0 12.2 25.2 5 13.2 22z"/>
  <path fill="#fff" d="M46.6 65.5c-5-1.6-14.7-3.3-14 2.5.9 5.8 9.7.8 14-2.5z"/>
  <path fill="#000" d="M70.2 10.8a4 4 0 0 0 1.8-1V11a6 6 0 0 1-1 1.6c.2 0 .5 0 .8-.2l2.8-.8c.4.7.4 1.4.5 2.2a17.8 17.8 0 0 1-.5 5l-1.2 3.6a9 9 0 0 1 2.2 2.6c.7 1.3 1.2 2.6 1.6 4a25.9 25.9 0 0 1 .6 10l-.8 4-.3.7a43.1 43.1 0 0 0-.8-2.6l-.2-.6a8 8 0 0 0-.4-1 3 3 0 0 0-.1-.4l-.7-1.7-.3-.4v-.2a7.3 7.3 0 0 0-.5-1l-.3-.4-.1-.3-.1-.2-.2-.2a5.7 5.7 0 0 0-.2-.4l-.3-.4c0-.2-.2-.4-.3-.5l-.3-.4c0-.2-.2-.4-.4-.5l-.2-.4s-.2 0-.2-.2l-.3-.3-.3-.3-1.1-1.1a11.2 11.2 0 0 0-1.2-1l-.4-.2a9.2 9.2 0 0 0-.7-.4l-.8-.4-.3-.2h-.2a12 12 0 0 0-4.7-.8c-2.2 0-4.5.6-6.6 1.4l-1 .4-.3.2-.6.3h-.1l-.8.4h-.1l-.1.1c-.2 0-.3.2-.5.3h-.2l.2-.9c.2-.4.3-.9.2-1.4 0-.2 0-.5-.3-.7a1 1 0 0 0-.6 0l-1.5.3c-1.5.5-3 1-4.6 1.2h-3.3l-2.2.1H35l-1 .1c-1.4.1-2.9.2-4.2.7-.5.2-.9.3-1.3.6l-.4.2a6.7 6.7 0 0 0-2.1 2.6 49.3 49.3 0 0 0-2 10.2l-1.1-3v-.1l-.2-.4-.4-1.3a20 20 0 0 1-1-5.5c-.1-.5-.1-1 0-1.6v-.7a16.3 16.3 0 0 1 1-4.6V26l.1-.2.1-.3.2-.4a13.3 13.3 0 0 1 6.3-6.2c.5-.2 1-.4 1.4-.8l.5-.7c.7-1 1.7-2 2.7-2.7 1.1-.7 2.4-1.3 3.7-1.8A54.7 54.7 0 0 1 50.5 11l12 .3a46.7 46.7 0 0 0 7.7-.6zM29.2 44.8l5.7-.1h2.9a57.8 57.8 0 0 1 7.2.7l2.3 1c1.3.4 2.8.5 4.2 0 .7-.1 1.4-.5 2.2-.8l2-.5 2.3-.3a95.2 95.2 0 0 1 20 .8l-.3 4.6-.2 1.2-.4.4-.5.2c-.3 0-.6.3-.8.5l-.6 1.4c-.3.5-.4 1.1-.6 1.7L74 57l-.8.8-.5.3a38.6 38.6 0 0 1-16.7 0 3 3 0 0 1-1.3-.9c-.4-.5-.7-1.2-1-1.9l-.6-2-.8-1.4-.7-.6h-.1L51 51l-.3-.1-.8-.4h-.7-.3l-.5.4-.3.1-.7.5-.6.7c-.4.5-.6 1-.8 1.6l-.7 2-.8 1.5c-.4.4-.9.7-1.4.9l-2.4.6A34.2 34.2 0 0 1 26 57.8c-.6-.4-1-1-1.2-1.7l-.6-2a6 6 0 0 0-.9-1.7c-.1-.2-.3-.3-.6-.4-.2 0-.4 0-.6-.2l-.3-.2-.1-.5-.2-1.8v-.6l-.1-.6v-.8-1-.7l2.5-.4 5.3-.4zm1.1 1.1c-.8 0-1.7.2-2.5.5l-1.2.5-.2.3-.4.3-.2.3c-.4.6-.6 1.4-.7 2.1l.1 2.7c.2 1.2.5 2.4 1.2 3.4.4.5 1 1 1.5 1.3 1.1.6 2.4.8 3.6 1h5.8l2.5-.1c.7-.1 1.5-.2 2.1-.5l1.4-.8a5 5 0 0 0 1.2-1.9 11.6 11.6 0 0 0 .6-2.2l.4-2.2c0-.7-.2-1.5-.5-2.1v-.1l-.5-.5c0-.2-.1-.2-.3-.3l-.2-.2H44v-.1a5.7 5.7 0 0 0-1.2-.6c-1-.4-2-.6-3-.7H37l-1.2-.1h-5.6zm28.4.2a10.4 10.4 0 0 0-2.7.8 4.8 4.8 0 0 0-1.2.9l-.3.3-.5 1c-.3.8-.2 1.6-.1 2.4a23.9 23.9 0 0 0 1 4L56 57l1.3.7a9 9 0 0 0 2.2.5l2.4.1h5.7c1.1-.1 2.3-.3 3.4-.8.9-.5 1.7-1.2 2.2-2.1l.1-.4c.5-1 .7-2.2.8-3.3V51v-.6a5.5 5.5 0 0 0-.6-2.4 3.3 3.3 0 0 0-1.2-1.3l-.4-.2-2-.5-2.8-.1h-3c-1.8 0-3.6 0-5.4.2z"/>
  <defs>
    <linearGradient id="paint0_linear" x1="52.7" x2="52.7" y1="25.4" y2="69.2" gradientUnits="userSpaceOnUse">
      <stop stop-color="#fff"/>
      <stop offset=".5" stop-color="#FFFFEC"/>
      <stop offset="1" stop-color="#FFFFEA"/>
    </linearGradient>
    <linearGradient id="paint1_linear" x1="49" x2="49" y1="81.6" y2="18.9" gradientUnits="userSpaceOnUse">
      <stop stop-color="#BE721E"/>
      <stop offset=".1" stop-color="#D4944E"/>
      <stop offset=".6" stop-color="#D4944E"/>
      <stop offset=".7" stop-color="#A76823"/>
      <stop offset=".8" stop-color="#D07F28"/>
      <stop offset="1" stop-color="#EAB67E"/>
    </linearGradient>
    <radialGradient id="paint2_radial" cx="0" cy="0" r="1" gradientTransform="matrix(44.6247 0 0 40.9404 50 50)" gradientUnits="userSpaceOnUse">
      <stop stop-color="#FCF6C6" stop-opacity=".2"/>
      <stop offset=".5" stop-color="#FDF1C2" stop-opacity=".5"/>
      <stop offset="1" stop-color="#FFE0A6"/>
    </radialGradient>
    <linearGradient id="paint3_linear" x1="56.3" x2="56.3" y1="47.5" y2="52.4" gradientUnits="userSpaceOnUse">
      <stop stop-color="#EBB45C" stop-opacity=".6"/>
      <stop offset="1" stop-color="#DFC295" stop-opacity=".3"/>
    </linearGradient>
    <linearGradient id="paint4_linear" x1="66.4" x2="67.3" y1="41.3" y2="43.5" gradientUnits="userSpaceOnUse">
      <stop stop-color="#EBB45C" stop-opacity=".6"/>
      <stop offset="1" stop-color="#DFC295" stop-opacity=".3"/>
    </linearGradient>
    <linearGradient id="paint5_linear" x1="43.6" x2="42.2" y1="44.2" y2="46.6" gradientUnits="userSpaceOnUse">
      <stop stop-color="#EBB45C" stop-opacity=".6"/>
      <stop offset="1" stop-color="#DFC295" stop-opacity=".3"/>
    </linearGradient>
    <linearGradient id="paint6_linear" x1="61.7" x2="58.3" y1="63" y2="65.7" gradientUnits="userSpaceOnUse">
      <stop stop-color="#EBB45C" stop-opacity=".6"/>
      <stop offset="1" stop-color="#DFC295" stop-opacity=".3"/>
    </linearGradient>
    <linearGradient id="paint7_linear" x1="39" x2="36.8" y1="27.2" y2="29" gradientUnits="userSpaceOnUse">
      <stop stop-color="#EBB45C" stop-opacity=".6"/>
      <stop offset="1" stop-color="#DFC295" stop-opacity=".3"/>
    </linearGradient>
    <linearGradient id="paint8_linear" x1="38.7" x2="40" y1="67.4" y2="68.8" gradientUnits="userSpaceOnUse">
      <stop stop-color="#EBB45C" stop-opacity=".6"/>
      <stop offset="1" stop-color="#DFC295" stop-opacity=".3"/>
    </linearGradient>
    <linearGradient id="paint9_linear" x1="31.8" x2="31.8" y1="50.7" y2="53" gradientUnits="userSpaceOnUse">
      <stop stop-color="#EBB45C" stop-opacity=".6"/>
      <stop offset="1" stop-color="#DFC295" stop-opacity=".3"/>
    </linearGradient>
    <linearGradient id="paint10_linear" x1="47.4" x2="46.2" y1="33" y2="34.4" gradientUnits="userSpaceOnUse">
      <stop stop-color="#EBB45C" stop-opacity=".6"/>
      <stop offset="1" stop-color="#DFC295" stop-opacity=".3"/>
    </linearGradient>
    <linearGradient id="paint11_linear" x1="55.8" x2="58.1" y1="35.3" y2="37" gradientUnits="userSpaceOnUse">
      <stop stop-color="#EBB45C" stop-opacity=".6"/>
      <stop offset="1" stop-color="#DFC295" stop-opacity=".3"/>
    </linearGradient>
    <linearGradient id="paint12_linear" x1="62.9" x2="64.4" y1="28.1" y2="29.6" gradientUnits="userSpaceOnUse">
      <stop stop-color="#EBB45C" stop-opacity=".6"/>
      <stop offset="1" stop-color="#DFC295" stop-opacity=".3"/>
    </linearGradient>
    <linearGradient id="paint13_linear" x1="52.3" x2="52.3" y1="24.9" y2="26.4" gradientUnits="userSpaceOnUse">
      <stop stop-color="#EBB45C" stop-opacity=".6"/>
      <stop offset="1" stop-color="#DFC295" stop-opacity=".3"/>
    </linearGradient>
    <linearGradient id="paint14_linear" x1="28.3" x2="28.3" y1="58.7" y2="60.2" gradientUnits="userSpaceOnUse">
      <stop stop-color="#EBB45C" stop-opacity=".6"/>
      <stop offset="1" stop-color="#DFC295" stop-opacity=".3"/>
    </linearGradient>
    <linearGradient id="paint15_linear" x1="67.1" x2="67.1" y1="53.6" y2="55.2" gradientUnits="userSpaceOnUse">
      <stop stop-color="#EBB45C" stop-opacity=".6"/>
      <stop offset="1" stop-color="#DFC295" stop-opacity=".3"/>
    </linearGradient>
    <linearGradient id="paint16_linear" x1="53.7" x2="51.2" y1="72.9" y2="72.5" gradientUnits="userSpaceOnUse">
      <stop stop-color="#EBB45C" stop-opacity=".6"/>
      <stop offset="1" stop-color="#DFC295" stop-opacity=".3"/>
    </linearGradient>
    <linearGradient id="paint17_linear" x1="31" x2="33.1" y1="73" y2="75.1" gradientUnits="userSpaceOnUse">
      <stop stop-color="#EBB45C" stop-opacity=".6"/>
      <stop offset="1" stop-color="#DFC295" stop-opacity=".3"/>
    </linearGradient>
    <linearGradient id="paint18_linear" x1="34.1" x2="34.1" y1="35.4" y2="37.5" gradientUnits="userSpaceOnUse">
      <stop stop-color="#EBB45C" stop-opacity=".6"/>
      <stop offset="1" stop-color="#DFC295" stop-opacity=".3"/>
    </linearGradient>
    <linearGradient id="paint19_linear" x1="41.5" x2="43.1" y1="56.9" y2="60.5" gradientUnits="userSpaceOnUse">
      <stop stop-color="#EBB45C" stop-opacity=".6"/>
      <stop offset="1" stop-color="#DFC295" stop-opacity=".3"/>
    </linearGradient>
    <linearGradient id="paint20_linear" x1="65.4" x2="63.5" y1="72" y2="73.9" gradientUnits="userSpaceOnUse">
      <stop stop-color="#EBB45C" stop-opacity=".6"/>
      <stop offset="1" stop-color="#DFC295" stop-opacity=".3"/>
    </linearGradient>
    <linearGradient id="paint21_linear" x1="48.8" x2="48.8" y1="30.7" y2="74.9" gradientUnits="userSpaceOnUse">
      <stop stop-color="#FFA34D"/>
      <stop offset="1" stop-color="#CD450C"/>
    </linearGradient>
  </defs>
</svg>
